<svg width="51" height="50" viewBox="0 0 51 50" fill="none" xmlns="http://www.w3.org/2000/svg">
<path d="M45.9795 3.4019C40.5173 -2.04605 33.7709 -0.066172 29.3306 3.20088C28.2219 4.01512 26.8792 4.45458 25.5 4.45458C24.1208 4.45458 22.7781 4.01512 21.6694 3.20088C17.2291 -0.066172 10.4826 -2.04605 5.02045 3.4019C-6.17968 14.5728 3.02212 47.8742 16.3278 49.8942C24.3337 51.1096 21.2897 41.603 21.4497 34.4113C21.5654 29.2115 29.4346 29.2115 29.5503 34.4113C29.7102 41.603 26.6663 51.1096 34.6722 49.8942C47.9779 47.8742 57.1797 14.5728 45.9795 3.4019Z" fill="url(#paint0_linear_186_241)"/>
<defs>
<linearGradient id="paint0_linear_186_241" x1="10.1679" y1="7.22911" x2="44.6608" y2="41.9778" gradientUnits="userSpaceOnUse">
<stop stop-color="#3267FF"/>
<stop offset="1" stop-color="#5984FF"/>
</linearGradient>
</defs>
</svg>
