<svg width="20" height="21" viewBox="0 0 20 21" fill="none" xmlns="http://www.w3.org/2000/svg">
<g clip-path="url(#clip0_88_208)">
<path d="M11.0433 12.18C10.9952 12.18 10.935 12.2033 10.8629 12.25C10.7907 12.2967 10.7305 12.3667 10.6824 12.46C10.4899 14.56 10.1531 16.3917 9.67192 17.955C9.19073 19.5183 8.7336 20.3233 8.30053 20.37C8.15617 20.23 7.93963 19.4367 7.65092 17.99C7.41032 16.6833 7.19379 15.7733 7.00131 15.26C6.7126 14.42 6.31562 14 5.81037 14C5.30512 14 4.90814 14.3733 4.61942 15.12C4.47507 15.5867 4.25853 16.4733 3.96982 17.78C3.63298 19.3667 3.39239 20.23 3.24803 20.37C2.81496 20.3233 2.40595 19.6933 2.021 18.48C1.63605 17.36 1.31124 16.03 1.04659 14.49C0.781934 12.95 0.649606 11.6667 0.649606 10.64C0.649606 9.75333 0.793963 8.97167 1.08268 8.295C1.37139 7.61833 1.75634 7.14 2.23753 6.86C2.28565 6.81333 2.32174 6.74333 2.3458 6.65C2.36986 6.55667 2.35783 6.475 2.30971 6.405C2.26159 6.335 2.18941 6.28833 2.09318 6.265C1.99694 6.24167 1.92476 6.25333 1.87664 6.3C1.29921 6.67333 0.842082 7.245 0.505249 8.015C0.168416 8.785 0 9.66 0 10.64C0 11.34 0.120297 12.46 0.360892 14C0.601487 15.8667 0.93832 17.4067 1.37139 18.62C1.94882 20.2067 2.57437 21 3.24803 21C3.58486 21 3.84952 20.7433 4.042 20.23C4.18635 19.8567 4.37883 19.0867 4.61942 17.92C4.8119 16.9867 4.98032 16.31 5.12467 15.89C5.31715 15.05 5.53368 14.63 5.77428 14.63C6.01487 14.63 6.27953 15.05 6.56824 15.89C6.66448 16.3567 6.80884 17.1033 7.00131 18.13C7.19379 19.2033 7.36221 19.9033 7.50656 20.23C7.69904 20.7433 7.93963 21 8.22835 21C8.90201 21 9.5035 20.3233 10.0328 18.97C10.3696 17.99 10.6824 16.7067 10.9711 15.12C11.1636 14.1867 11.308 13.3233 11.4042 12.53C11.4042 12.4367 11.3681 12.355 11.2959 12.285C11.2238 12.215 11.1395 12.18 11.0433 12.18ZM19.7047 15.96L13.8583 10.36C13.8102 10.2667 13.738 10.22 13.6417 10.22C13.5455 10.22 13.4613 10.255 13.3891 10.325C13.3169 10.395 13.2808 10.4767 13.2808 10.57C13.2808 10.6633 13.329 10.7333 13.4252 10.78L19.1995 16.45C19.3438 16.5433 19.416 16.6833 19.416 16.87C19.416 17.0567 19.3438 17.2083 19.1995 17.325C19.0551 17.4417 18.8987 17.5 18.7303 17.5C18.5619 17.5 18.4296 17.43 18.3333 17.29L12.4147 11.55C12.3185 11.5033 12.2222 11.48 12.126 11.48C12.0297 11.48 11.9576 11.515 11.9094 11.585C11.8613 11.655 11.8373 11.7367 11.8373 11.83C11.8373 11.9233 11.8613 11.9933 11.9094 12.04L17.8281 17.78C18.0687 18.0133 18.3694 18.13 18.7303 18.13C19.0912 18.13 19.404 18.0133 19.6686 17.78C19.9333 17.5467 20.0656 17.255 20.0656 16.905C20.0656 16.555 19.9453 16.24 19.7047 15.96ZM8.44488 0C7.24191 0 6.12314 0.291666 5.08858 0.875C4.05402 1.45833 3.22397 2.25167 2.59843 3.255C1.97288 4.25833 1.66011 5.355 1.66011 6.545C1.66011 7.735 1.97288 8.83167 2.59843 9.835C3.22397 10.8383 4.05402 11.6433 5.08858 12.25C6.12314 12.8567 7.25394 13.16 8.48097 13.16C9.70801 13.16 10.8388 12.8567 11.8734 12.25C12.9079 11.6433 13.7259 10.8383 14.3274 9.835C14.9289 8.83167 15.2297 7.735 15.2297 6.545C15.2297 5.355 14.9289 4.25833 14.3274 3.255C13.7259 2.25167 12.9079 1.45833 11.8734 0.875C10.8388 0.291666 9.69598 0 8.44488 0ZM8.44488 12.46C7.33815 12.46 6.31562 12.1917 5.3773 11.655C4.43898 11.1183 3.70516 10.4067 3.17585 9.52C2.64654 8.63333 2.38189 7.65333 2.38189 6.58C2.38189 5.50667 2.64654 4.515 3.17585 3.605C3.70516 2.695 4.43898 1.97167 5.3773 1.435C6.31562 0.898333 7.33815 0.629999 8.44488 0.629999C9.55162 0.629999 10.5741 0.898333 11.5125 1.435C12.4508 1.97167 13.1966 2.695 13.75 3.605C14.3034 4.515 14.5801 5.50667 14.5801 6.58C14.5801 7.65333 14.3034 8.63333 13.75 9.52C13.1966 10.4067 12.4508 11.1183 11.5125 11.655C10.5741 12.1917 9.55162 12.46 8.44488 12.46ZM6.35171 4.34C6.30359 4.24667 6.23141 4.2 6.13517 4.2C6.03893 4.2 5.9427 4.22333 5.84646 4.27C5.75022 4.31667 5.7021 4.375 5.7021 4.445C5.7021 4.515 5.73819 4.60833 5.81037 4.725C5.88255 4.84167 5.89458 4.97 5.84646 5.11C5.79834 5.25 5.60586 5.34333 5.26903 5.39C4.6916 5.48333 4.30665 5.71667 4.11417 6.09C3.96982 6.27667 3.9217 6.46333 3.96982 6.65C4.01794 6.83667 4.11417 6.93 4.25853 6.93H4.40289C4.49913 6.93 4.55927 6.88333 4.58333 6.79C4.60739 6.69667 4.61942 6.62667 4.61942 6.58C4.61942 6.53333 4.64348 6.46333 4.6916 6.37C4.78784 6.23 5.02843 6.11333 5.41339 6.02C5.9427 5.92667 6.27953 5.71667 6.42388 5.39C6.52012 5.15667 6.54418 4.92333 6.49606 4.69C6.44794 4.55 6.39983 4.43333 6.35171 4.34ZM8.80577 7.35C8.51706 7.07 8.18023 6.90667 7.79528 6.86C7.50656 6.86 7.21785 6.95333 6.92913 7.14C6.78478 7.23333 6.66448 7.32667 6.56824 7.42C6.472 7.51333 6.42388 7.60667 6.42388 7.7C6.42388 7.79333 6.45997 7.875 6.53215 7.945C6.60433 8.015 6.68854 8.05 6.78478 8.05C6.88102 8.05 6.96522 8.015 7.0374 7.945C7.10958 7.875 7.21785 7.79333 7.36221 7.7C7.50656 7.60667 7.65092 7.56 7.79528 7.56C7.98775 7.56 8.15617 7.63 8.30053 7.77C8.34864 7.86333 8.42082 7.91 8.51706 7.91C8.6133 7.91 8.69751 7.875 8.76969 7.805C8.84186 7.735 8.87795 7.65333 8.87795 7.56C8.87795 7.46667 8.85389 7.39667 8.80577 7.35ZM10.9711 6.72C10.8749 6.62667 10.8268 6.53333 10.8268 6.44C10.8268 6.34667 10.8749 6.21833 10.9711 6.055C11.0674 5.89167 11.1636 5.775 11.2598 5.705C11.3561 5.635 11.4042 5.55333 11.4042 5.46C11.4042 5.36667 11.3801 5.285 11.332 5.215C11.2839 5.145 11.2117 5.11 11.1155 5.11C11.0192 5.11 10.911 5.15667 10.7907 5.25C10.6704 5.34333 10.5621 5.46 10.4659 5.6C10.2734 5.92667 10.1772 6.23 10.1772 6.51C10.1772 6.79 10.2854 7.02333 10.502 7.21C10.7185 7.39667 10.7546 7.7 10.6102 8.12C10.514 8.35333 10.4178 8.54 10.3215 8.68C10.2734 8.77333 10.2493 8.86667 10.2493 8.96C10.2493 9.05333 10.2854 9.12333 10.3576 9.17C10.4298 9.21667 10.514 9.24 10.6102 9.24C10.7065 9.24 10.7787 9.19333 10.8268 9.1C11.1155 8.72667 11.2839 8.33 11.332 7.91C11.4283 7.39667 11.308 7 10.9711 6.72ZM9.02231 4.62C8.97419 4.34 8.90201 4.06 8.80577 3.78C8.51706 3.26667 8.18023 3.01 7.79528 3.01C7.69904 3.01 7.61483 3.045 7.54265 3.115C7.47047 3.185 7.43438 3.26667 7.43438 3.36C7.43438 3.45333 7.47047 3.535 7.54265 3.605C7.61483 3.675 7.69904 3.71 7.79528 3.71C7.89151 3.71 7.99978 3.82667 8.12008 4.06C8.24038 4.29333 8.32458 4.515 8.3727 4.725C8.42082 4.935 8.54112 5.04 8.7336 5.04H8.80577C8.90201 4.99333 8.97419 4.935 9.02231 4.865C9.07043 4.795 9.07043 4.71333 9.02231 4.62ZM12.7034 4.13C12.5591 3.66333 12.2222 3.29 11.6929 3.01C11.4042 2.91667 11.1155 2.84667 10.8268 2.8C10.7305 2.8 10.6463 2.82333 10.5741 2.87C10.502 2.91667 10.4659 2.98667 10.4659 3.08C10.4659 3.17333 10.4899 3.255 10.5381 3.325C10.5862 3.395 10.6584 3.43 10.7546 3.43C10.9471 3.47667 11.1395 3.54667 11.332 3.64C11.717 3.78 11.9576 4.01333 12.0538 4.34C12.1019 4.48 12.2222 4.55 12.4147 4.55H12.4869C12.5831 4.55 12.6553 4.50333 12.7034 4.41C12.7515 4.31667 12.7515 4.22333 12.7034 4.13ZM10.1772 10.36C10.129 10.2667 10.0809 10.185 10.0328 10.115C9.98469 10.045 9.91251 10.0333 9.81627 10.08C9.23885 10.08 8.58924 10.0333 7.86745 9.94C7.77122 9.94 7.67498 9.96333 7.57874 10.01C7.4825 10.0567 7.43438 10.1267 7.43438 10.22C7.43438 10.3133 7.45844 10.395 7.50656 10.465C7.55468 10.535 7.62686 10.57 7.7231 10.57C8.30053 10.6633 8.87795 10.71 9.45538 10.71H9.81627C9.91251 10.71 9.99672 10.675 10.0689 10.605C10.1411 10.535 10.1772 10.4533 10.1772 10.36ZM8.22835 1.68C8.18023 1.58667 8.10805 1.52833 8.01181 1.505C7.91557 1.48167 7.81934 1.47 7.7231 1.47L6.06299 2.17C5.96675 2.17 5.89458 2.21667 5.84646 2.31C5.79834 2.40333 5.79834 2.50833 5.84646 2.625C5.89458 2.74167 5.99081 2.8 6.13517 2.8L6.27953 2.73L8.01181 2.1C8.10805 2.05333 8.1682 1.995 8.19226 1.925C8.21632 1.855 8.22835 1.77333 8.22835 1.68ZM13.2808 6.3C13.2327 6.20667 13.1605 6.14833 13.0643 6.125C12.9681 6.10167 12.8839 6.11333 12.8117 6.16C12.7395 6.20667 12.6914 6.27667 12.6673 6.37C12.6433 6.46333 12.6553 6.53333 12.7034 6.58C12.7997 6.76667 12.8718 6.97667 12.9199 7.21C12.9681 7.44333 12.956 7.60667 12.8839 7.7C12.8117 7.79333 12.7997 7.88667 12.8478 7.98C12.8959 8.07333 12.944 8.14333 12.9921 8.19L13.1365 8.26C13.2808 8.26 13.4011 8.19 13.4974 8.05C13.6417 7.77 13.6658 7.42 13.5696 7C13.4733 6.76667 13.3771 6.53333 13.2808 6.3ZM5.41339 8.19C5.31715 8.19 5.23294 8.225 5.16076 8.295C5.08858 8.365 5.05249 8.44667 5.05249 8.54C5.00437 9.14667 4.92017 9.52 4.79987 9.66C4.67957 9.8 4.66754 9.92833 4.76378 10.045C4.86002 10.1617 4.95626 10.22 5.05249 10.22C5.14873 10.22 5.22091 10.1967 5.26903 10.15C5.50962 10.01 5.65398 9.47333 5.7021 8.54C5.7021 8.44667 5.67804 8.365 5.62992 8.295C5.5818 8.225 5.50962 8.19 5.41339 8.19Z" fill="#3267FF"/>
</g>
<defs>
<clipPath id="clip0_88_208">
<rect width="20" height="21" fill="white" transform="matrix(1 0 0 -1 0 21)"/>
</clipPath>
</defs>
</svg>
