<svg width="21" height="21" viewBox="0 0 21 21" fill="none" xmlns="http://www.w3.org/2000/svg">
<g clip-path="url(#clip0_88_202)">
<path d="M13.7139 1.39997C12.7034 1.39997 11.8493 1.74997 11.1516 2.44997C10.4538 3.14997 10.105 3.97831 10.105 4.93497C10.105 5.89164 10.4538 6.70831 11.1516 7.38497C11.8493 8.06164 12.7034 8.39997 13.7139 8.39997C14.7244 8.39997 15.5785 8.06164 16.2762 7.38497C16.974 6.70831 17.3228 5.89164 17.3228 4.93497C17.3228 3.97831 16.974 3.14997 16.2762 2.44997C15.5785 1.74997 14.7244 1.39997 13.7139 1.39997ZM13.7139 7.69997C12.8959 7.69997 12.2102 7.43164 11.6568 6.89497C11.1035 6.35831 10.8268 5.70497 10.8268 4.93497C10.8268 4.16497 11.1035 3.49997 11.6568 2.93997C12.2102 2.37997 12.8839 2.09997 13.6778 2.09997C14.4718 2.09997 15.1575 2.37997 15.7349 2.93997C16.3123 3.49997 16.601 4.16497 16.601 4.93497C16.601 5.70497 16.3123 6.35831 15.7349 6.89497C15.1575 7.43164 14.4838 7.69997 13.7139 7.69997ZM21.5092 10.64L18.1168 7.27997C18.5499 6.53331 18.7544 5.71664 18.7303 4.82997C18.7063 3.94331 18.4777 3.12664 18.0446 2.37997C17.6115 1.63331 16.986 1.04997 16.168 0.629972C15.35 0.209974 14.4958 -2.67029e-05 13.6056 -2.67029e-05C12.7154 -2.67029e-05 11.8854 0.22164 11.1155 0.664974C10.3456 1.10831 9.73206 1.72664 9.27493 2.51997C8.8178 3.31331 8.60127 4.14164 8.62533 5.00497C8.64939 5.86831 8.88998 6.67331 9.34711 7.41997C9.80424 8.16664 10.4418 8.76164 11.2598 9.20497C12.0779 9.64831 12.9681 9.84664 13.9304 9.79997C14.8928 9.75331 15.783 9.47331 16.601 8.95997L19.9213 12.18C20.0175 12.2266 20.1137 12.25 20.21 12.25C20.3062 12.25 20.3784 12.2266 20.4265 12.18L21.5092 11.13C21.6054 11.0366 21.6535 10.9433 21.6535 10.85C21.6535 10.7566 21.6054 10.6866 21.5092 10.64ZM13.7139 9.09997C12.944 9.09997 12.2222 8.91331 11.5486 8.53997C10.8749 8.16664 10.3456 7.66497 9.96063 7.03497C9.57568 6.40497 9.3832 5.70497 9.3832 4.93497C9.3832 4.16497 9.57568 3.46497 9.96063 2.83497C10.3456 2.20497 10.8749 1.69164 11.5486 1.29497C12.2222 0.898306 12.944 0.699974 13.7139 0.699974C14.4838 0.699974 15.2056 0.898306 15.8793 1.29497C16.5529 1.69164 17.0822 2.20497 17.4672 2.83497C17.8521 3.46497 18.0446 4.16497 18.0446 4.93497C18.0446 5.70497 17.8521 6.40497 17.4672 7.03497C17.0822 7.66497 16.5529 8.16664 15.8793 8.53997C15.2056 8.91331 14.4838 9.09997 13.7139 9.09997ZM20.21 11.41L17.1785 8.46997C17.371 8.28331 17.5394 8.09664 17.6837 7.90997L20.7874 10.85L20.21 11.41ZM16.2402 9.79997C15.9514 10.78 15.5424 11.7133 15.0131 12.6L14.7966 12.88L13.2087 19.6C13.1605 19.8333 13.0282 20.02 12.8117 20.16C12.5951 20.3 12.3786 20.3466 12.1621 20.3C11.9455 20.2533 11.7651 20.16 11.6207 20.02C11.4764 19.88 11.3801 19.7166 11.332 19.53L10.2493 13.23C10.2012 12.81 9.99672 12.4716 9.63583 12.215C9.27493 11.9583 8.88998 11.865 8.48097 11.935C8.07196 12.005 7.74716 12.1566 7.50656 12.39C7.26597 12.6233 7.12161 12.9033 7.07349 13.23L5.99081 19.53C5.94269 19.7633 5.81037 19.9616 5.59383 20.125C5.3773 20.2883 5.16076 20.3466 4.94423 20.3C4.72769 20.2533 4.54724 20.1716 4.40289 20.055C4.25853 19.9383 4.16229 19.7866 4.11417 19.6L2.45407 12.81L2.38189 12.6C1.27515 10.92 0.721785 9.09997 0.721785 7.13997C0.721785 6.34664 0.92629 5.62331 1.3353 4.96997C1.74431 4.31664 2.28565 3.79164 2.95932 3.39497C3.63298 2.99831 4.37883 2.79997 5.19685 2.79997C5.77428 2.79997 6.35171 2.91664 6.92913 3.14997C7.31409 3.33664 7.7231 3.45331 8.15617 3.49997L8.22835 2.79997C7.89151 2.75331 7.55468 2.65997 7.21785 2.51997C6.35171 2.19331 5.4615 2.07664 4.54724 2.16997C3.63298 2.26331 2.81496 2.57831 2.09318 3.11497C1.37139 3.65164 0.818023 4.33997 0.433071 5.17997C0.144357 5.78664 0 6.43997 0 7.13997C0 9.23997 0.577428 11.1766 1.73228 12.95L1.87664 13.09L3.39239 19.74C3.48863 20.16 3.72922 20.4983 4.11417 20.755C4.49913 21.0116 4.9322 21.07 5.41339 20.93C5.75022 20.8833 6.0269 20.7433 6.24344 20.51C6.45997 20.2766 6.61636 19.9966 6.7126 19.67L7.79528 13.37C7.79528 13.1366 7.90354 12.95 8.12008 12.81C8.33661 12.67 8.55315 12.6116 8.76968 12.635C8.98622 12.6583 9.16667 12.74 9.31102 12.88C9.45538 13.02 9.55162 13.1833 9.59974 13.37L10.6824 19.67C10.7305 20.09 10.9471 20.4283 11.332 20.685C11.717 20.9416 12.126 21.0466 12.5591 21C12.8959 20.9533 13.1846 20.8133 13.4252 20.58C13.6658 20.3466 13.8342 20.0666 13.9304 19.74L15.5184 13.09L15.5906 12.95C16.168 12.0166 16.601 11.0366 16.8898 10.01L16.2402 9.79997ZM3.96982 4.54997L3.89764 4.26997C3.41645 4.36331 2.98338 4.59664 2.59843 4.96997C2.06912 5.48331 1.80446 6.15997 1.80446 6.99997H2.52625C2.52625 6.25331 2.76684 5.69331 3.24803 5.31997C3.53675 5.08664 3.8014 4.94664 4.04199 4.89997L3.96982 4.54997ZM4.6916 4.19997H5.41339V4.89997H4.6916V4.19997ZM11.8373 4.82997L13.7861 2.93997L14.2913 3.42997L12.3425 5.31997L11.8373 4.82997ZM12.7034 6.43997L15.2297 3.98997L15.7349 4.47997L13.2087 6.92997L12.7034 6.43997Z" fill="#3267FF"/>
</g>
<defs>
<clipPath id="clip0_88_202">
<rect width="21" height="21" fill="white" transform="matrix(1 0 0 -1 0 21)"/>
</clipPath>
</defs>
</svg>
