<svg width="22" height="23" viewBox="0 0 22 23" fill="none" xmlns="http://www.w3.org/2000/svg">
<path d="M8.78333 11.16L7.78333 11.58C7.60556 11.6733 7.42778 11.6733 7.25 11.58C7.07222 11.4867 6.93889 11.3467 6.85 11.16C6.76111 10.9733 6.76111 10.7867 6.85 10.6L7.11667 10.11C7.16111 9.97 7.17222 9.83 7.15 9.69C7.12778 9.55 7.07222 9.43333 6.98333 9.34L5.38333 7.66L5.85 7.17C5.89444 7.12333 5.91667 7.05333 5.91667 6.96C5.91667 6.86667 5.89444 6.77333 5.85 6.68L4.71667 5.56L4.85 5.42C4.89444 5.37333 4.91667 5.30333 4.91667 5.21C4.91667 5.11667 4.89444 5.02333 4.85 4.93L1.85 1.64C1.76111 1.54667 1.67222 1.5 1.58333 1.5C1.49444 1.5 1.41667 1.535 1.35 1.605C1.28333 1.675 1.25 1.75667 1.25 1.85V6.4C1.25 6.49333 1.29444 6.58667 1.38333 6.68L2.38333 7.52C2.42778 7.61333 2.49444 7.66 2.58333 7.66C2.67222 7.66 2.76111 7.61333 2.85 7.52L2.91667 7.45L3.98333 8.57C4.07222 8.66333 4.16111 8.71 4.25 8.71C4.33889 8.71 4.42778 8.66333 4.51667 8.57L4.91667 8.15L6.51667 9.83L6.31667 10.25C6.13889 10.6233 6.10556 10.9967 6.21667 11.37C6.32778 11.7433 6.56111 12.0233 6.91667 12.21C7.27222 12.3967 7.62778 12.3967 7.98333 12.21L9.05 11.79L8.78333 11.16ZM2.65 6.68L2.58333 6.82L1.91667 6.26V2.76L4.11667 5.21L2.65 6.68ZM4.25 7.87L3.38333 6.96L4.25 6.05L5.11667 6.96L4.25 7.87ZM21.05 11.65C20.9167 11.6033 20.7833 11.6267 20.65 11.72L15.9833 16.62C15.9389 16.7133 15.9167 16.8067 15.9167 16.9C15.9167 16.9933 15.9389 17.0867 15.9833 17.18L16.25 17.39L14.9833 18.79C14.45 18.4633 13.8722 18.3 13.25 18.3C12.4944 18.3 11.8611 18.51 11.35 18.93C10.8389 19.35 10.5833 19.84 10.5833 20.4C10.5833 20.96 10.8389 21.45 11.35 21.87C11.8611 22.29 12.4944 22.5 13.25 22.5C14.0056 22.5 14.6389 22.29 15.15 21.87C15.6611 21.45 15.9167 20.96 15.9167 20.4C15.9167 19.98 15.7611 19.6067 15.45 19.28L16.7833 17.95L16.9833 18.23C17.0722 18.2767 17.1611 18.3 17.25 18.3C17.3389 18.3 17.4278 18.2767 17.5167 18.23L21.1833 14.38C21.2278 14.2867 21.25 14.1933 21.25 14.1V12C21.25 11.86 21.1833 11.7433 21.05 11.65ZM13.25 21.8C12.7167 21.8 12.25 21.66 11.85 21.38C11.45 21.1 11.25 20.7733 11.25 20.4C11.25 20.0267 11.45 19.7 11.85 19.42C12.25 19.14 12.7167 19 13.25 19C13.7833 19 14.25 19.14 14.65 19.42C15.05 19.7 15.25 20.0267 15.25 20.4C15.25 20.7733 15.05 21.1 14.65 21.38C14.25 21.66 13.7833 21.8 13.25 21.8ZM20.5833 13.96L17.25 17.46L16.7167 16.9L20.5833 12.84V13.96ZM12.7167 13.33C12.6722 12.91 12.4833 12.5717 12.15 12.315C11.8167 12.0583 11.4611 11.965 11.0833 12.035C10.7056 12.105 10.4056 12.2567 10.1833 12.49C9.96111 12.7233 9.82778 13.0033 9.78333 13.33L8.78333 19.7C8.73889 19.9333 8.61667 20.12 8.41667 20.26C8.21667 20.4 8.01667 20.4467 7.81667 20.4C7.61667 20.3533 7.45 20.26 7.31667 20.12C7.18333 19.98 7.11667 19.8167 7.11667 19.63L6.25 12.98L6.18333 12.84L5.98333 12.56C5.45 11.58 5.05 10.5533 4.78333 9.48L4.18333 9.62C4.40556 10.7867 4.82778 11.8833 5.45 12.91L5.58333 13.19L6.45 19.77C6.49444 20.19 6.68333 20.5283 7.01667 20.785C7.35 21.0417 7.70556 21.1467 8.08333 21.1C8.46111 21.0533 8.76111 20.9133 8.98333 20.68C9.20556 20.4467 9.33889 20.1433 9.38333 19.77L10.3833 13.47C10.4278 13.2367 10.5278 13.05 10.6833 12.91C10.8389 12.77 11.0278 12.7 11.25 12.7C11.4722 12.7 11.6611 12.77 11.8167 12.91C11.9722 13.05 12.0722 13.2367 12.1167 13.47L12.7833 17.67L13.3833 17.53L12.7167 13.33ZM14.3833 2.9C13.8056 2.9 13.2611 3.01667 12.75 3.25C12.2389 3.48333 11.7389 3.6 11.25 3.6C10.7611 3.6 10.2722 3.48333 9.78333 3.25C8.93889 2.87667 8.08333 2.795 7.21667 3.005C6.35 3.215 5.60556 3.67 4.98333 4.37L5.51667 4.79C5.82778 4.41667 6.21667 4.125 6.68333 3.915C7.15 3.705 7.62778 3.6 8.11667 3.6C8.60556 3.6 9.07222 3.69333 9.51667 3.88C10.05 4.16 10.6278 4.3 11.25 4.3C11.8722 4.3 12.45 4.16 12.9833 3.88C13.8722 3.50667 14.7722 3.50667 15.6833 3.88C16.5944 4.25333 17.25 4.90667 17.65 5.84C17.8278 6.30667 17.9167 6.79667 17.9167 7.31C17.9167 9.22333 17.45 10.9733 16.5167 12.56L16.3167 12.84L16.25 12.98L15.9833 15.08L16.65 15.22L16.9167 13.19L17.05 12.91C18.0722 11.1833 18.5833 9.31667 18.5833 7.31C18.5833 6.51667 18.3944 5.78167 18.0167 5.105C17.6389 4.42833 17.1278 3.89167 16.4833 3.495C15.8389 3.09833 15.1389 2.9 14.3833 2.9Z" fill="#3267FF"/>
</svg>
