<svg width="38" height="60" viewBox="0 0 38 60" fill="none" xmlns="http://www.w3.org/2000/svg">
<path id="Vector" d="M5.4 1.2C3.4 1.2 1.66667 1.93333 0.2 3.4C0.0666667 3.53333 0 3.73333 0 4C0 4.26667 0.1 4.53333 0.3 4.8C0.5 5.06667 0.733333 5.2 1 5.2C1.26667 5.2 1.53333 5.06667 1.8 4.8C2.73333 3.86666 3.9 3.4 5.3 3.4C6.7 3.4 7.9 3.9 8.9 4.9C9.9 5.9 10.4 7.06667 10.4 8.4C10.4 9.73333 9.9 10.9 8.9 11.9C7.9 12.9 6.73333 13.4 5.4 13.4C5 13.4 4.73333 13.5 4.6 13.7C4.46667 13.9 4.4 14.1333 4.4 14.4L4.2 20.2C4.2 20.6 4.3 20.9 4.5 21.1C4.7 21.3 4.93333 21.4 5.2 21.4C5.46667 21.4 5.7 21.3 5.9 21.1C6.1 20.9 6.2 20.6667 6.2 20.4L6.4 15.4C8.13333 15.1333 9.56667 14.3333 10.7 13C11.8333 11.6667 12.4 10.0667 12.4 8.2C12.4 6.33333 11.7 4.7 10.3 3.3C8.9 1.9 7.26667 1.2 5.4 1.2ZM9.4 19.4H1.2C0.933333 19.4 0.7 19.5 0.5 19.7C0.3 19.9 0.2 20.1333 0.2 20.4V25.4C0.2 25.6667 0.3 25.9 0.5 26.1C0.7 26.3 0.933333 26.4 1.2 26.4H9.4C9.66667 26.4 9.9 26.3 10.1 26.1C10.3 25.9 10.4 25.6667 10.4 25.4V20.4C10.4 20.1333 10.3 19.9 10.1 19.7C9.9 19.5 9.66667 19.4 9.4 19.4ZM8.4 24.4H2.2V21.4H8.4V24.4ZM29.6 12.2C29.3333 12.2 29.1 12.3 28.9 12.5C28.7 12.7 28.6 12.9333 28.6 13.2V20.4C28.6 20.6667 28.7 20.9 28.9 21.1C29.1 21.3 29.3333 21.4 29.6 21.4C29.8667 21.4 30.1 21.3 30.3 21.1C30.5 20.9 30.6 20.6667 30.6 20.4V13.2C30.6 12.9333 30.5 12.7 30.3 12.5C30.1 12.3 29.8667 12.2 29.6 12.2ZM35.2 2.4C33.6 0.799999 31.7 0 29.5 0C27.3 0 25.4 0.799999 23.8 2.4C22.2 4 21.4 5.9 21.4 8.1C21.4 10.3 22.2 12.2 23.8 13.8C25.4 15.4 27.3333 16.2 29.6 16.2C31.8667 16.2 33.7667 15.4 35.3 13.8C36.8333 12.2 37.6 10.3 37.6 8.1C37.6 5.9 36.8 4 35.2 2.4ZM33.8 12.4C32.6 13.6 31.1667 14.2 29.5 14.2C27.8333 14.2 26.4 13.6 25.2 12.4C24 11.2 23.4 9.76667 23.4 8.1C23.4 6.43333 24 5 25.2 3.8C26.4 2.6 27.8667 2 29.6 2C31.3333 2 32.7667 2.6 33.9 3.8C35.0333 5 35.6 6.43333 35.6 8.1C35.6 9.76667 35 11.2 33.8 12.4ZM33.8 19.4H25.6C25.3333 19.4 25.1 19.5 24.9 19.7C24.7 19.9 24.6 20.1333 24.6 20.4V25.4C24.6 25.6667 24.7 25.9 24.9 26.1C25.1 26.3 25.3333 26.4 25.6 26.4H33.8C34.0667 26.4 34.3 26.3 34.5 26.1C34.7 25.9 34.8 25.6667 34.8 25.4V20.4C34.8 20.1333 34.7 19.9 34.5 19.7C34.3 19.5 34.0667 19.4 33.8 19.4ZM32.6 24.4H26.6V21.4H32.6V24.4ZM33.6 24.4H25.6C25.3333 24.4 25.1 24.5 24.9 24.7C24.7 24.9 24.6 25.1333 24.6 25.4V55C24.6 56.3333 25.1 57.5 26.1 58.5C27.1 59.5 28.3 60 29.7 60C31.1 60 32.3 59.5 33.3 58.5C34.3 57.5 34.7333 56.3333 34.6 55V25.4C34.6 25.1333 34.5 24.9 34.3 24.7C34.1 24.5 33.8667 24.4 33.6 24.4ZM32.6 55C32.6 55.8 32.3 56.5 31.7 57.1C31.1 57.7 30.4 58 29.6 58C28.8 58 28.1 57.7 27.5 57.1C26.9 56.5 26.6 55.8 26.6 55V26.4H32.6V55ZM9.2 24.4H1.2C0.933333 24.4 0.7 24.5 0.5 24.7C0.3 24.9 0.2 25.1333 0.2 25.4V55C0.2 56.3333 0.7 57.5 1.7 58.5C2.7 59.5 3.9 60 5.3 60C6.7 60 7.9 59.5 8.9 58.5C9.9 57.5 10.3333 56.3333 10.2 55V25.4C10.2 25.1333 10.1 24.9 9.9 24.7C9.7 24.5 9.46667 24.4 9.2 24.4ZM8.4 55C8.4 55.8 8.1 56.5 7.5 57.1C6.9 57.7 6.16667 58 5.3 58C4.43333 58 3.7 57.7 3.1 57.1C2.5 56.5 2.2 55.8 2.2 55V26.4H8.4V55Z" fill="#555555"/>
</svg>
