<svg width="50" height="54" viewBox="0 0 50 54" fill="none" xmlns="http://www.w3.org/2000/svg">
<path id="Vector" d="M38.9286 -3.8147e-06C38.2143 -3.8147e-06 37.381 0.179996 36.4286 0.539997C35.9524 0.659996 35.1786 0.959999 34.1071 1.44L31.9643 2.34C31.25 2.7 30.625 2.88 30.0893 2.88C29.5536 2.88 28.9286 2.7 28.2143 2.34L26.0714 1.44C25 0.959999 24.2262 0.659996 23.75 0.539997C22.9167 0.179996 22.0833 -3.8147e-06 21.25 -3.8147e-06C19.2262 -3.8147e-06 17.381 0.689999 15.7143 2.07C14.0476 3.45 12.7381 5.46 11.7857 8.1C11.6667 8.34 11.6964 8.58 11.875 8.82C12.0536 9.06 12.2619 9.18 12.5 9.18H18.9286C20.3571 9.18 21.5774 9.69 22.5893 10.71C23.6012 11.73 24.1071 12.96 24.1071 14.4C24.1071 15.84 23.6012 17.07 22.5893 18.09C21.5774 19.11 20.3571 19.62 18.9286 19.62H11.25C11.0119 19.62 10.8036 19.71 10.625 19.89C10.4464 20.07 10.3571 20.28 10.3571 20.52C10.5952 24 11.131 27.96 11.9643 32.4C12.9167 38.4 14.1071 43.26 15.5357 46.98C17.3214 51.66 19.2262 54 21.25 54C22.3214 54 23.2143 53.04 23.9286 51.12C24.4048 49.8 25.0595 47.1 25.8929 43.02C26.6071 39.42 27.2024 36.84 27.6786 35.28C28.5119 32.52 29.3452 31.14 30.1786 31.14C31.25 31.14 32.2024 32.58 33.0357 35.46C33.5119 37.14 34.0774 39.9 34.7321 43.74C35.3869 47.58 35.9524 50.04 36.4286 51.12C37.0238 53.04 37.8571 54 38.9286 54C41.1905 54 43.2738 51.3 45.1786 45.9C46.6071 41.7 47.7976 36.3 48.75 29.7C49.5833 24.18 50 19.83 50 16.65C50 13.47 49.5238 10.62 48.5714 8.1C47.619 5.58 46.2798 3.6 44.5536 2.16C42.8274 0.719997 40.9524 -3.8147e-06 38.9286 -3.8147e-06ZM38.9286 52.2C38.5714 52.08 38.1548 51 37.6786 48.96C37.3214 47.88 36.9643 46.08 36.6071 43.56C35.7738 38.76 35 35.52 34.2857 33.84C33.2143 30.84 31.8452 29.34 30.1786 29.34C28.631 29.34 27.381 30.72 26.4286 33.48C25.8333 35.04 25.0595 38.1 24.1071 42.66C23.631 45.42 23.2143 47.4 22.8571 48.6C22.2619 50.88 21.7262 52.08 21.25 52.2C20.2976 52.2 19.2262 50.91 18.0357 48.33C16.8452 45.75 15.7143 42.24 14.6429 37.8C13.5714 32.76 12.7976 27.3 12.3214 21.42H18.9286C20.8333 21.42 22.4702 20.73 23.8393 19.35C25.2083 17.97 25.8929 16.32 25.8929 14.4C25.8929 12.48 25.2083 10.83 23.8393 9.45C22.4702 8.07 20.8333 7.38 18.9286 7.38H13.9286C14.7619 5.58 15.8333 4.2 17.1429 3.24C18.4524 2.28 19.8214 1.8 21.25 1.8C21.8452 1.8 22.5 1.92 23.2143 2.16L25.3571 3.06C26.3095 3.54 27.0833 3.9 27.6786 4.14C28.5119 4.5 29.3155 4.68 30.0893 4.68C30.8631 4.68 31.6667 4.5 32.5 4.14C33.0952 3.9 33.869 3.54 34.8214 3.06L36.9643 2.16C37.6786 1.92 38.3333 1.8 38.9286 1.8C40.7143 1.8 42.2917 2.43 43.6607 3.69C45.0298 4.95 46.131 6.72 46.9643 9C47.7976 11.28 48.2143 13.86 48.2143 16.74C48.2143 20.22 47.7381 24.78 46.7857 30.42C45.8333 36.3 44.7024 41.22 43.3929 45.18C41.8452 49.86 40.3571 52.2 38.9286 52.2ZM27.8571 14.4C27.5 14.4 27.2321 14.49 27.0536 14.67C26.875 14.85 26.7857 15.06 26.7857 15.3C26.7857 17.22 26.131 18.87 24.8214 20.25C23.5119 21.63 21.9048 22.32 20 22.32C19.6429 22.32 19.375 22.41 19.1964 22.59C19.0179 22.77 18.9286 22.98 18.9286 23.22C18.9286 23.46 19.0179 23.67 19.1964 23.85C19.375 24.03 19.6429 24.12 20 24.12C22.381 24.12 24.4345 23.28 26.1607 21.6C27.8869 19.92 28.75 17.82 28.75 15.3C28.75 15.06 28.6607 14.85 28.4821 14.67C28.3036 14.49 28.0952 14.4 27.8571 14.4ZM20.3571 12.96H11.0714C10.8333 12.96 10.625 13.05 10.4464 13.23C10.2679 13.41 10.1786 13.65 10.1786 13.95C10.1786 14.25 10.2679 14.49 10.4464 14.67C10.625 14.85 10.8333 14.94 11.0714 14.94H20.3571C20.5952 14.94 20.8036 14.85 20.9821 14.67C21.1607 14.49 21.25 14.25 21.25 13.95C21.25 13.65 21.1607 13.41 20.9821 13.23C20.8036 13.05 20.5952 12.96 20.3571 12.96ZM21.7857 13.14L18.2143 10.44C17.9762 10.32 17.7381 10.26 17.5 10.26C17.2619 10.26 17.0536 10.38 16.875 10.62C16.6964 10.86 16.6369 11.1 16.6964 11.34C16.756 11.58 16.9048 11.76 17.1429 11.88L19.8214 14.04L17.1429 16.02C16.9048 16.14 16.756 16.32 16.6964 16.56C16.6369 16.8 16.6964 17.04 16.875 17.28C17.0536 17.52 17.2619 17.64 17.5 17.64C17.7381 17.64 17.9762 17.58 18.2143 17.46L21.7857 14.76C22.1429 14.52 22.3214 14.25 22.3214 13.95C22.3214 13.65 22.1429 13.38 21.7857 13.14ZM3.21429 8.28H0.892857C0.654762 8.28 0.446429 8.37 0.267857 8.55C0.0892857 8.73 0 9 0 9.36V19.62C0 19.86 0.0892857 20.07 0.267857 20.25C0.446429 20.43 0.654762 20.52 0.892857 20.52H3.21429C4.88095 20.52 6.30952 19.92 7.5 18.72C8.69048 17.52 9.28571 16.08 9.28571 14.4C9.28571 12.72 8.69048 11.28 7.5 10.08C6.30952 8.88 4.88095 8.28 3.21429 8.28ZM3.21429 18.54H1.96429V10.26H3.21429C4.40476 10.26 5.41667 10.65 6.25 11.43C7.08333 12.21 7.5 13.2 7.5 14.4C7.5 15.6 7.08333 16.59 6.25 17.37C5.41667 18.15 4.40476 18.54 3.21429 18.54Z" fill="#555555"/>
</svg>
