<svg width="49" height="50" viewBox="0 0 49 50" fill="none" xmlns="http://www.w3.org/2000/svg">
<path id="Vector" d="M42.1667 17.8333C41.8333 17.8333 41.5833 17.9167 41.4167 18.0833C41.25 18.25 41.1667 18.4444 41.1667 18.6667C40.8333 23.1111 40.2222 27.6667 39.3333 32.3333C38.4444 37 37.4444 40.7222 36.3333 43.5C35 46.7222 33.7778 48.3333 32.6667 48.3333C32.3333 48.1111 31.9444 47.1111 31.5 45.3333C31.2778 44.2222 30.9444 42.5 30.5 40.1667C29.7222 35.8333 29.0556 32.8333 28.5 31.1667C27.5 28.3889 26.1667 27 24.5 27C23.1667 27 22 28.2778 21 30.8333C20.4444 32.3889 19.7222 35.2778 18.8333 39.5C18.3889 41.9444 18 43.7778 17.6667 45C17.1111 47 16.6667 48.1111 16.3333 48.3333C15.4444 48.3333 14.3889 46.9722 13.1667 44.25C11.9444 41.5278 10.8333 38 9.83333 33.6667C8.83333 28.7778 8.16667 23.5556 7.83333 18C7.83333 17.7778 7.72222 17.5833 7.5 17.4167C7.27778 17.25 7.05556 17.1944 6.83333 17.25C6.61111 17.3056 6.41667 17.4167 6.25 17.5833C6.08333 17.75 6 17.9444 6 18.1667C6.22222 20.8333 6.55556 23.8333 7 27.1667C7.55556 30.9444 8.22222 34.3889 9 37.5C11.1111 45.8333 13.5556 50 16.3333 50C17.3333 50 18.1667 49.1111 18.8333 47.3333C19.2778 46.1111 19.8889 43.6111 20.6667 39.8333C21.2222 36.6111 21.7222 34.2778 22.1667 32.8333C22.9444 30.1667 23.7222 28.8333 24.5 28.8333C25.5 28.8333 26.3889 30.1667 27.1667 32.8333C27.6111 34.5 28.1667 37.0556 28.8333 40.5C29.3889 44.0556 29.8889 46.3333 30.3333 47.3333C30.8889 49.1111 31.6667 50 32.6667 50C34.6667 50 36.5 47.7778 38.1667 43.3333C39.5 40 40.6111 35.5 41.5 29.8333C42.1667 25.7222 42.6111 22.0556 42.8333 18.8333C42.9444 18.6111 42.9167 18.3889 42.75 18.1667C42.5833 17.9444 42.3889 17.8333 42.1667 17.8333ZM32.6667 0C32 0 31.2222 0.166664 30.3333 0.5C29.8889 0.611111 29.1667 0.888889 28.1667 1.33333L26.3333 2.16666C25.6667 2.5 25.0556 2.66666 24.5 2.66666C23.9444 2.66666 23.3333 2.5 22.6667 2.16666L20.8333 1.33333C19.8333 0.888889 19.1111 0.611111 18.6667 0.5C17.7778 0.166664 17 0 16.3333 0C14.4444 0 12.7222 0.611111 11.1667 1.83333C9.61111 3.05555 8.38889 4.77777 7.5 7C6.61111 9.22222 6.11111 11.7778 6 14.6667C6 14.8889 6.08333 15.0833 6.25 15.25C6.41667 15.4167 6.61111 15.5 6.83333 15.5C7.05556 15.5 7.25 15.4167 7.41667 15.25C7.58333 15.0833 7.66667 14.8889 7.66667 14.6667C7.77778 10.8889 8.66667 7.77777 10.3333 5.33333C12 2.88889 14 1.66666 16.3333 1.66666C16.8889 1.66666 17.5 1.83333 18.1667 2.16666L20 3C21 3.44444 21.7222 3.72222 22.1667 3.83333C23.0556 4.16666 23.8333 4.33333 24.5 4.33333C25.1667 4.33333 25.9444 4.16666 26.8333 3.83333C27.2778 3.72222 28 3.44444 29 3L30.8333 2.16666C31.5 1.83333 32.1111 1.66666 32.6667 1.66666C35 1.66666 36.9722 2.86111 38.5833 5.25C40.1944 7.63889 41.1111 10.6667 41.3333 14.3333C41.3333 14.5556 41.4167 14.75 41.5833 14.9167C41.75 15.0833 41.9444 15.1667 42.1667 15.1667C42.3889 15.1667 42.5833 15.0833 42.75 14.9167C42.9167 14.75 43 14.5 43 14.1667C42.7778 10.0556 41.7222 6.66666 39.8333 4C37.9444 1.33333 35.5556 0 32.6667 0ZM34.3333 9.5H14.6667C14.3333 9.5 14.1111 9.58333 14 9.75C13.8889 9.91666 13.8333 10.1111 13.8333 10.3333V22.3333C13.8333 22.6667 13.8889 22.8889 14 23C14.1111 23.1111 14.3333 23.1667 14.6667 23.1667H34.3333C34.6667 23.1667 34.8889 23.1111 35 23C35.1111 22.8889 35.1667 22.6667 35.1667 22.3333V10.3333C35.1667 10.1111 35.1111 9.91666 35 9.75C34.8889 9.58333 34.6667 9.5 34.3333 9.5ZM33.5 21.5H15.5V11.1667H33.5V21.5ZM14.6667 13.8333H0.833333C0.611111 13.8333 0.416667 13.9167 0.25 14.0833C0.0833333 14.25 0 14.4444 0 14.6667V18.1667C0 18.3889 0.0833333 18.5833 0.25 18.75C0.416667 18.9167 0.611111 19 0.833333 19H14.6667C14.8889 19 15.0833 18.9167 15.25 18.75C15.4167 18.5833 15.5 18.3889 15.5 18.1667V14.6667C15.5 14.4444 15.4167 14.25 15.25 14.0833C15.0833 13.9167 14.8889 13.8333 14.6667 13.8333ZM13.8333 17.3333H1.66667V15.5H13.8333V17.3333ZM48.1667 13.8333H34.3333C34.1111 13.8333 33.9167 13.9167 33.75 14.0833C33.5833 14.25 33.5 14.4444 33.5 14.6667V18.1667C33.5 18.3889 33.5833 18.5833 33.75 18.75C33.9167 18.9167 34.1111 19 34.3333 19H48.1667C48.3889 19 48.5833 18.9167 48.75 18.75C48.9167 18.5833 49 18.3889 49 18.1667V14.6667C49 14.4444 48.9167 14.25 48.75 14.0833C48.5833 13.9167 48.3889 13.8333 48.1667 13.8333ZM47.3333 17.3333H35.1667V15.5H47.3333V17.3333ZM21.5 12H18.8333C18.6111 12 18.4167 12.0833 18.25 12.25C18.0833 12.4167 18 12.6667 18 13V19.8333C18 20.0556 18.0833 20.25 18.25 20.4167C18.4167 20.5833 18.6111 20.6667 18.8333 20.6667H21.5C21.7222 20.6667 21.9167 20.5833 22.0833 20.4167C22.25 20.25 22.3333 20.0556 22.3333 19.8333V13C22.3333 12.6667 22.25 12.4167 22.0833 12.25C21.9167 12.0833 21.7222 12 21.5 12ZM20.6667 19H19.8333V13.8333H20.6667V19ZM29.1667 12H26.6667C26.4444 12 26.25 12.0833 26.0833 12.25C25.9167 12.4167 25.8333 12.6667 25.8333 13V19.8333C25.8333 20.0556 25.9167 20.25 26.0833 20.4167C26.25 20.5833 26.4444 20.6667 26.6667 20.6667H29.1667C29.5 20.6667 29.75 20.5833 29.9167 20.4167C30.0833 20.25 30.1667 20.0556 30.1667 19.8333V13C30.1667 12.6667 30.0833 12.4167 29.9167 12.25C29.75 12.0833 29.5 12 29.1667 12ZM28.3333 19H27.5V13.8333H28.3333V19ZM34.3333 15.5H29.1667C28.9444 15.5 28.75 15.5833 28.5833 15.75C28.4167 15.9167 28.3333 16.1111 28.3333 16.3333C28.3333 16.5556 28.4167 16.75 28.5833 16.9167C28.75 17.0833 28.9444 17.1667 29.1667 17.1667H34.3333C34.6667 17.1667 34.9167 17.0833 35.0833 16.9167C35.25 16.75 35.3333 16.5556 35.3333 16.3333C35.3333 16.1111 35.25 15.9167 35.0833 15.75C34.9167 15.5833 34.6667 15.5 34.3333 15.5ZM26.6667 15.5H21.5C21.2778 15.5 21.0833 15.5833 20.9167 15.75C20.75 15.9167 20.6667 16.1111 20.6667 16.3333C20.6667 16.5556 20.75 16.75 20.9167 16.9167C21.0833 17.0833 21.2778 17.1667 21.5 17.1667H26.6667C26.8889 17.1667 27.0833 17.0833 27.25 16.9167C27.4167 16.75 27.5 16.5556 27.5 16.3333C27.5 16.1111 27.4167 15.9167 27.25 15.75C27.0833 15.5833 26.8889 15.5 26.6667 15.5ZM18 15.5H14.6667C14.3333 15.5 14.0833 15.5833 13.9167 15.75C13.75 15.9167 13.6667 16.1111 13.6667 16.3333C13.6667 16.5556 13.75 16.75 13.9167 16.9167C14.0833 17.0833 14.3333 17.1667 14.6667 17.1667H18C18.2222 17.1667 18.4167 17.0833 18.5833 16.9167C18.75 16.75 18.8333 16.5556 18.8333 16.3333C18.8333 16.1111 18.75 15.9167 18.5833 15.75C18.4167 15.5833 18.2222 15.5 18 15.5Z" fill="#555555"/>
</svg>
