<svg width="48" height="48" viewBox="0 0 48 48" fill="none" xmlns="http://www.w3.org/2000/svg">
<path id="Vector" d="M19.84 28.349C19.6267 28.2416 19.4133 28.1879 19.2 28.1879C18.9867 28.1879 18.8267 28.2416 18.72 28.349L15.52 31.5705C15.4133 31.6779 15.36 31.8389 15.36 32.0537C15.36 32.2685 15.44 32.4564 15.6 32.6175C15.76 32.7785 15.9467 32.8591 16.16 32.8591C16.3733 32.8591 16.5333 32.8054 16.64 32.698L19.84 29.4765C19.9467 29.3691 20 29.1812 20 28.9128C20 28.6443 19.9467 28.4564 19.84 28.349ZM41.44 13.3691L34.72 6.44296C34.5067 6.33557 34.2933 6.28188 34.08 6.28188C33.8667 6.28188 33.7067 6.33557 33.6 6.44296L19.2 20.9396C19.0933 21.047 19.04 21.2081 19.04 21.4228C19.04 21.6376 19.0933 21.8524 19.2 22.0671L26.08 28.9933C26.1867 29.1007 26.3733 29.1544 26.64 29.1544C26.9067 29.1544 27.0933 29.1007 27.2 28.9933L41.44 14.4966C41.6533 14.3893 41.76 14.2282 41.76 14.0134C41.76 13.7987 41.6533 13.5839 41.44 13.3691ZM26.72 27.2215L20.96 21.4228L34.08 8.21477L39.84 14.0134L26.72 27.2215ZM27.84 16.9128L26.72 15.7852C26.5067 15.5705 26.2933 15.4631 26.08 15.4631C25.8667 15.4631 25.68 15.5436 25.52 15.7047C25.36 15.8658 25.28 16.0537 25.28 16.2685C25.28 16.4832 25.3333 16.698 25.44 16.9128L26.72 18.0403C26.8267 18.1477 26.9867 18.2013 27.2 18.2013C27.4133 18.2013 27.6 18.1208 27.76 17.9597C27.92 17.7987 28 17.6107 28 17.396C28 17.1812 27.9467 17.0201 27.84 16.9128ZM30.56 14.0134L29.44 12.8859C29.3333 12.6711 29.1733 12.5638 28.96 12.5638C28.7467 12.5638 28.56 12.6443 28.4 12.8054C28.24 12.9664 28.16 13.1812 28.16 13.4497C28.16 13.7181 28.2133 13.906 28.32 14.0134L29.44 15.1409C29.6533 15.3557 29.8667 15.4631 30.08 15.4631C30.2933 15.4631 30.48 15.3826 30.64 15.2215C30.8 15.0604 30.88 14.8725 30.88 14.6577C30.88 14.443 30.7733 14.2282 30.56 14.0134ZM33.44 11.1141L32.32 9.98658C32.2133 9.8792 32.0267 9.8255 31.76 9.8255C31.4933 9.8255 31.3067 9.90604 31.2 10.0671C31.0933 10.2282 31.04 10.4161 31.04 10.6309C31.04 10.8456 31.0933 11.0067 31.2 11.1141L32.32 12.2416C32.5333 12.4564 32.7467 12.5638 32.96 12.5638C33.1733 12.5638 33.36 12.4832 33.52 12.3222C33.68 12.1611 33.76 11.9732 33.76 11.7584C33.76 11.5436 33.6533 11.3289 33.44 11.1141ZM46.08 7.73154L40.32 1.93289C40.2133 1.8255 40.0533 1.77181 39.84 1.77181C39.6267 1.77181 39.4133 1.8255 39.2 1.93289L34.08 7.08725C33.9733 7.30202 33.92 7.51678 33.92 7.73154C33.92 7.94631 33.9733 8.10738 34.08 8.21477L39.84 14.0134C39.9467 14.1208 40.1067 14.1745 40.32 14.1745C40.5333 14.1745 40.7467 14.1208 40.96 14.0134L46.08 8.85906C46.1867 8.64429 46.24 8.42953 46.24 8.21477C46.24 8 46.1867 7.83893 46.08 7.73154ZM40.32 12.2416L35.84 7.73154L39.84 3.54362L44.32 8.21477L40.32 12.2416ZM47.84 9.34229L38.72 0.161076C38.5067 0.0536919 38.2933 0 38.08 0C37.8667 0 37.68 0.0805397 37.52 0.241615C37.36 0.402687 37.28 0.590607 37.28 0.80537C37.28 1.02013 37.3333 1.18121 37.44 1.28859L46.56 10.4698C46.7733 10.6846 46.9867 10.7919 47.2 10.7919C47.4133 10.7919 47.6 10.7114 47.76 10.5503C47.92 10.3893 48 10.2013 48 9.98658C48 9.77181 47.9467 9.55705 47.84 9.34229ZM28.96 24.9664L23.2 19.1678C23.0933 19.0604 22.9333 19.0067 22.72 19.0067C22.5067 19.0067 22.32 19.0872 22.16 19.2483C22 19.4094 21.92 19.5973 21.92 19.8121C21.92 20.0268 21.9733 20.1879 22.08 20.2953L27.84 26.094C27.9467 26.2013 28.1067 26.255 28.32 26.255C28.5333 26.255 28.72 26.1745 28.88 26.0134C29.04 25.8524 29.12 25.6644 29.12 25.4497C29.12 25.2349 29.0667 25.0738 28.96 24.9664ZM25.44 26.094L22.08 22.7114C21.9733 22.4966 21.7867 22.3893 21.52 22.3893C21.2533 22.3893 21.0667 22.4966 20.96 22.7114L16.96 26.5772C16.8533 26.7919 16.8 27.0067 16.8 27.2215C16.8 27.4362 16.8533 27.5973 16.96 27.7047L20.32 31.2483C20.5333 31.3557 20.7467 31.4094 20.96 31.4094C21.1733 31.4094 21.3333 31.3557 21.44 31.2483L25.44 27.2215C25.6533 27.0067 25.76 26.7919 25.76 26.5772C25.76 26.3624 25.6533 26.2013 25.44 26.094ZM20.96 29.4765L18.56 27.2215L21.44 24.3221L23.84 26.5772L20.96 29.4765ZM10.24 28.5101C9.81333 28.5101 9.22667 28.7248 8.48 29.1544C7.94667 29.3691 7.57333 29.4765 7.36 29.4765C7.14667 29.4765 6.72 29.3691 6.08 29.1544C5.33333 28.7248 4.74667 28.5101 4.32 28.5101C3.04 28.5101 2 29.1007 1.2 30.2819C0.4 31.4631 0 32.9664 0 34.7919C0 35.651 0.08 36.7785 0.24 38.1745C0.4 39.5705 0.64 40.9664 0.96 42.3624C1.49333 44.6174 2.08 46.1745 2.72 47.0336C3.14667 47.6779 3.65333 48 4.24 48C4.82667 48 5.28 47.6242 5.6 46.8725C5.81333 46.443 6.08 45.4228 6.4 43.8121C6.72 41.7718 7.04 40.5906 7.36 40.2685C7.68 40.5906 8 41.8792 8.32 44.1342C8.64 45.5302 8.90667 46.4966 9.12 47.0336C9.33333 47.6779 9.73333 48 10.32 48C10.9067 48 11.4133 47.6779 11.84 47.0336C12.48 46.1745 13.0667 44.6174 13.6 42.3624C13.92 40.9664 14.16 39.5705 14.32 38.1745C14.48 36.7785 14.56 35.651 14.56 34.7919C14.56 32.9664 14.16 31.4631 13.36 30.2819C12.56 29.1007 11.52 28.5101 10.24 28.5101ZM10.56 46.2282C10.3467 45.906 10.1333 45.1007 9.92 43.8121C9.70667 42.094 9.44 40.9128 9.12 40.2685C8.69333 39.0872 8.10667 38.4966 7.36 38.4966C6.61333 38.4966 6.02667 39.0336 5.6 40.1074C5.38667 40.6443 5.12 41.8255 4.8 43.651C4.48 45.047 4.26667 45.906 4.16 46.2282C3.62667 45.6913 3.06667 44.1074 2.48 41.4765C1.89333 38.8456 1.6 36.6175 1.6 34.7919C1.6 33.5034 1.86667 32.4027 2.4 31.4899C2.93333 30.5772 3.57333 30.1208 4.32 30.1208C4.53333 30.1208 4.90667 30.2819 5.44 30.604C6.18667 30.9262 6.8 31.0872 7.28 31.0872C7.76 31.0872 8.37333 30.9262 9.12 30.604C9.65333 30.2819 10.0267 30.1208 10.24 30.1208C10.9867 30.1208 11.6267 30.5772 12.16 31.4899C12.6933 32.4027 12.96 33.5034 12.96 34.7919C12.96 36.6175 12.6933 38.8456 12.16 41.4765C11.6267 44.1074 11.0933 45.6913 10.56 46.2282Z" fill="#555555"/>
</svg>
