<svg width="27" height="27" viewBox="0 0 27 27" fill="none" xmlns="http://www.w3.org/2000/svg">
<path d="M3.91032 14.9012C6.91477 18.7146 10.3814 22.0079 14.3103 24.7812C15.5814 25.6479 16.9825 26.0524 18.5137 25.9946C20.0448 25.9368 21.3881 25.4168 22.5437 24.4346L24.3637 22.9613C24.9992 22.3835 25.317 21.6613 25.317 20.7946C25.317 19.9279 24.9992 19.2057 24.3637 18.6279L20.7237 15.7679C20.0303 15.2479 19.2648 15.089 18.427 15.2913C17.5892 15.4935 16.9103 15.9701 16.3903 16.7213C16.217 17.0101 15.957 17.1546 15.6103 17.1546C15.2637 17.1546 14.9748 17.0679 14.7437 16.8946C13.1259 15.4501 11.5948 13.919 10.1503 12.3013C9.97699 12.0701 9.89032 11.7812 9.89032 11.4346C9.89032 11.0879 10.0348 10.8279 10.3237 10.6546L10.8437 10.1346C11.4214 9.67236 11.7537 9.06569 11.8403 8.31458C11.927 7.56347 11.7392 6.89903 11.277 6.32125L8.41699 2.68125C7.83921 2.04569 7.11699 1.71347 6.25032 1.68458C5.38366 1.65569 4.66143 1.98792 4.08366 2.68125L2.61032 4.50125C1.22366 6.11903 0.732545 7.91014 1.13699 9.87458C1.42588 11.5501 2.35032 13.2257 3.91032 14.9012ZM3.82366 5.54125L5.38366 3.72125C5.61477 3.43236 5.90366 3.28792 6.25032 3.28792C6.59699 3.28792 6.88588 3.43236 7.11699 3.72125L9.97699 7.27458C10.1503 7.56347 10.2225 7.85236 10.1937 8.14125C10.1648 8.43014 10.0348 8.69014 9.80366 8.92125L9.28366 9.35458C8.70588 9.87458 8.37366 10.5246 8.28699 11.3046C8.20032 12.0846 8.41699 12.7635 8.93699 13.3413C10.4392 15.0168 12.0281 16.6057 13.7037 18.1079C14.2814 18.6279 14.9603 18.859 15.7403 18.8012C16.5203 18.7435 17.1703 18.3968 17.6903 17.7613L18.1237 17.2413C18.3548 17.0101 18.6148 16.8801 18.9037 16.8512C19.1925 16.8224 19.4814 16.8946 19.7703 17.0679L23.3237 19.9279C23.6125 20.159 23.757 20.4479 23.757 20.7946C23.757 21.1413 23.6125 21.4301 23.3237 21.6613L21.5037 23.2213C20.637 23.9724 19.6259 24.3768 18.4703 24.4346C17.3148 24.4924 16.2459 24.1746 15.2637 23.4813C10.6992 20.2457 6.79921 16.3457 3.56366 11.7812C2.87032 10.799 2.55254 9.73014 2.61032 8.57458C2.6681 7.41903 3.07254 6.40792 3.82366 5.54125Z" fill="white"/>
</svg>
