<svg width="18" height="26" viewBox="0 0 18 26" fill="none" xmlns="http://www.w3.org/2000/svg">
<path d="M9 5C7.66019 5 6.50971 5.46809 5.54854 6.40426C4.58738 7.34043 4.1068 8.47518 4.1068 9.80851C4.1068 11.1418 4.58738 12.2766 5.54854 13.2128C6.50971 14.1489 7.66019 14.617 9 14.617C10.3398 14.617 11.4903 14.1489 12.4515 13.2128C13.4126 12.2766 13.8932 11.1418 13.8932 9.80851C13.8932 8.47518 13.4126 7.34043 12.4515 6.40426C11.4903 5.46809 10.3398 5 9 5ZM9 13C8.06796 13 7.29612 12.6879 6.68447 12.0638C6.07282 11.4397 5.76699 10.6879 5.76699 9.80851C5.76699 8.92908 6.07282 8.17731 6.68447 7.55319C7.29612 6.92908 8.06796 6.61702 9 6.61702C9.93204 6.61702 10.7184 6.92908 11.3592 7.55319C12 8.17731 12.3058 8.92908 12.2767 9.80851C12.2476 10.6879 11.9272 11.4397 11.3155 12.0638C10.7039 12.6879 9.93204 13 9 13ZM9 1C7.36893 1 5.86893 1.39716 4.5 2.19149C3.13107 2.98582 2.03884 4.04965 1.2233 5.38298C0.407767 6.71631 0 8.20568 0 9.85106C0 11.4965 0.320388 13.1418 0.961165 14.7872C1.54369 16.0922 2.35922 17.4539 3.40777 18.8723C4.04854 19.7234 5.03884 20.9149 6.37864 22.4468C7.31068 23.4113 7.98058 24.1489 8.38835 24.6596C8.56311 24.8865 8.76699 25 9 25C9.23301 25 9.43689 24.8865 9.61165 24.6596C10.0194 24.1489 10.6893 23.4113 11.6214 22.4468C12.9612 20.9149 13.9515 19.7234 14.5922 18.8723C15.6408 17.4539 16.4563 16.0922 17.0388 14.7872C17.6796 13.1418 18 11.4965 18 9.85106C18 8.20568 17.5922 6.71631 16.7767 5.38298C15.9612 4.04965 14.8689 2.98582 13.5 2.19149C12.1311 1.39716 10.6311 1 9 1ZM10.3981 21.3404C10.3398 21.3972 10.2816 21.4539 10.2233 21.5106L9 22.8723L7.60194 21.3404C6.32039 19.922 5.38835 18.8156 4.80583 18.0213C3.81553 16.7163 3.05825 15.4681 2.53398 14.2766C1.95146 12.8014 1.66019 11.2979 1.66019 9.76596C1.66019 8.51773 1.98058 7.34043 2.62136 6.23404C3.26214 5.12766 4.15049 4.24823 5.28641 3.59575C6.42233 2.94326 7.66019 2.61702 9 2.61702C10.3398 2.61702 11.5777 2.94326 12.7136 3.59575C13.8495 4.24823 14.7379 5.12766 15.3786 6.23404C16.0194 7.34043 16.3398 8.51773 16.3398 9.76596C16.3398 11.2979 16.0485 12.8014 15.466 14.2766C14.9417 15.4681 14.1845 16.7163 13.1942 18.0213C12.6117 18.8156 11.6796 19.922 10.3981 21.3404Z" fill="white"/>
</svg>
