<svg width="14" height="18" viewBox="0 0 14 18" fill="none" xmlns="http://www.w3.org/2000/svg">
<path d="M7 3C5.95793 3 5.06311 3.35106 4.31553 4.05319C3.56796 4.75532 3.19417 5.60638 3.19417 6.60638C3.19417 7.60638 3.56796 8.45745 4.31553 9.15957C5.06311 9.8617 5.95793 10.2128 7 10.2128C8.04207 10.2128 8.93689 9.8617 9.68447 9.15957C10.432 8.45745 10.8058 7.60638 10.8058 6.60638C10.8058 5.60638 10.432 4.75532 9.68447 4.05319C8.93689 3.35106 8.04207 3 7 3ZM7 9C6.27508 9 5.67476 8.76596 5.19903 8.29787C4.7233 7.82979 4.48544 7.26596 4.48544 6.60638C4.48544 5.94681 4.7233 5.38298 5.19903 4.91489C5.67476 4.44681 6.27508 4.21277 7 4.21277C7.72492 4.21277 8.33657 4.44681 8.83495 4.91489C9.33333 5.38298 9.5712 5.94681 9.54854 6.60638C9.52589 7.26596 9.2767 7.82979 8.80097 8.29787C8.32524 8.76596 7.72492 9 7 9ZM7 0C5.73139 0 4.56472 0.297873 3.5 0.893618C2.43528 1.48936 1.58576 2.28723 0.951456 3.28723C0.317152 4.28723 0 5.40425 0 6.6383C0 7.87234 0.249191 9.10638 0.747573 10.3404C1.20065 11.3191 1.83495 12.3404 2.65049 13.4043C3.14887 14.0426 3.91909 14.9362 4.96116 16.0851C5.68608 16.8085 6.20712 17.3617 6.52427 17.7447C6.66019 17.9149 6.81877 18 7 18C7.18123 18 7.33981 17.9149 7.47573 17.7447C7.79288 17.3617 8.31392 16.8085 9.03883 16.0851C10.0809 14.9362 10.8511 14.0426 11.3495 13.4043C12.165 12.3404 12.7994 11.3191 13.2524 10.3404C13.7508 9.10638 14 7.87234 14 6.6383C14 5.40425 13.6828 4.28723 13.0485 3.28723C12.4142 2.28723 11.5647 1.48936 10.5 0.893618C9.43528 0.297873 8.26861 0 7 0ZM8.08738 15.2553C8.04207 15.2979 7.99676 15.3404 7.95146 15.383L7 16.4043L5.91262 15.2553C4.91586 14.1915 4.19094 13.3617 3.73786 12.766C2.96764 11.7872 2.37864 10.8511 1.97087 9.95745C1.5178 8.85106 1.29126 7.7234 1.29126 6.57447C1.29126 5.6383 1.54045 4.75532 2.03883 3.92553C2.53722 3.09575 3.22816 2.43617 4.11165 1.94681C4.99515 1.45745 5.95793 1.21277 7 1.21277C8.04207 1.21277 9.00485 1.45745 9.88835 1.94681C10.7718 2.43617 11.4628 3.09575 11.9612 3.92553C12.4595 4.75532 12.7087 5.6383 12.7087 6.57447C12.7087 7.7234 12.4822 8.85106 12.0291 9.95745C11.6214 10.8511 11.0324 11.7872 10.2621 12.766C9.80906 13.3617 9.08414 14.1915 8.08738 15.2553Z" fill="#999999"/>
</svg>
