<svg width="61" height="60" viewBox="0 0 61 60" fill="none" xmlns="http://www.w3.org/2000/svg">
<g clip-path="url(#clip0_140_127)">
<path d="M30 24.2C32.8 24.2 35.2 23.2 37.2 21.2C39.2 19.2 40.2 16.7999 40.2 14C40.2 11.2 39.2 8.79995 37.2 6.79995C35.2 4.79995 32.8 3.79995 30 3.79995C27.2 3.79995 24.8 4.79995 22.8 6.79995C20.8 8.79995 19.8 11.2 19.8 14C19.8 16.7999 20.8 19.2 22.8 21.2C24.8 23.2 27.2 24.2 30 24.2ZM30 7.39995C31.8667 7.39995 33.4333 8.06662 34.7 9.39995C35.9667 10.7333 36.6 12.2999 36.6 14.0999C36.6 15.9 35.9667 17.4666 34.7 18.7999C33.4333 20.1333 31.8667 20.7999 30 20.7999C28.1333 20.7999 26.5667 20.1333 25.3 18.7999C24.0333 17.4666 23.4 15.9 23.4 14.0999C23.4 12.2999 24.0333 10.7333 25.3 9.39995C26.5667 8.06662 28.1333 7.39995 30 7.39995ZM50.6 24.2C52.3333 24.2 53.8333 23.5666 55.1 22.2999C56.3667 21.0333 57 19.5333 57 17.7999C57 16.0666 56.3667 14.5666 55.1 13.2999C53.8333 12.0333 52.3333 11.4 50.6 11.4C48.8667 11.4 47.3667 12.0333 46.1 13.2999C44.8333 14.5666 44.2 16.0666 44.2 17.7999C44.2 19.5333 44.8333 21.0333 46.1 22.2999C47.3667 23.5666 48.8667 24.2 50.6 24.2ZM50.6 14.7999C51.4 14.7999 52.1 15.0999 52.7 15.7C53.3 16.2999 53.6 17 53.6 17.7999C53.6 18.5999 53.3 19.2999 52.7 19.9C52.1 20.5 51.4 20.7999 50.6 20.7999C49.8 20.7999 49.1 20.5 48.5 19.9C47.9 19.2999 47.6 18.5999 47.6 17.7999C47.6 17 47.9 16.2999 48.5 15.7C49.1 15.0999 49.8 14.7999 50.6 14.7999ZM52 28.2H49.4C47.8 28.2 46.3333 28.6333 45 29.5C43.6667 30.3666 42.6667 31.4666 42 32.8C40.8 31.3333 39.2667 30.2 37.4 29.4C35.5333 28.6 33.6 28.2 31.6 28.2H28.4C26.4 28.2 24.4667 28.6 22.6 29.4C20.7333 30.2 19.2 31.3333 18 32.8C17.3333 31.4666 16.3333 30.3666 15 29.5C13.6667 28.6333 12.2 28.2 10.6 28.2H8C5.73333 28.2 3.83333 28.9666 2.3 30.5C0.766667 32.0333 0 33.9333 0 36.2V49C0 49.9333 0.333333 50.7333 1 51.4C1.66667 52.0666 2.46667 52.4 3.4 52.4H14.2C14.3333 53.4666 14.7667 54.3666 15.5 55.1C16.2333 55.8333 17.1333 56.2 18.2 56.2H41.8C42.8667 56.2 43.7667 55.8333 44.5 55.1C45.2333 54.3666 45.6667 53.4666 45.8 52.4H56.4C57.4667 52.4 58.3333 52.0333 59 51.3C59.6667 50.5666 60 49.7333 60 48.8V36.2C60 33.9333 59.2333 32.0333 57.7 30.5C56.1667 28.9666 54.2667 28.2 52 28.2ZM3.6 36.2C3.6 35 4.03333 33.9666 4.9 33.1C5.76667 32.2333 6.8 31.8 8 31.8H10.6C11.9333 31.8 13.0333 32.2333 13.9 33.1C14.7667 33.9666 15.2 35 15.2 36.2V37.4C14.6667 38.6 14.3333 39.8 14.2 41C14.2 41.9333 14.2 43.6 14.2 46V48.8H3.6V36.2ZM42.4 52C42.4 52.4 42.2 52.6 41.8 52.6H18.2C17.8 52.6 17.6 52.4 17.6 52V42.4C17.6 39.4666 18.6667 36.9666 20.8 34.9C22.9333 32.8333 25.4667 31.8 28.4 31.8H31.6C34.5333 31.8 37.0667 32.8333 39.2 34.9C41.3333 36.9666 42.4 39.4666 42.4 42.4V52ZM56.4 48.8C56.4 48.8 56.4333 48.8 56.5 48.8C56.5667 48.8 55.2 48.8 52.4 48.8H45.8V46C45.8 43.4666 45.8 41.8 45.8 41C45.6667 39.8 45.3333 38.6 44.8 37.4V36.2C44.8 35 45.2333 33.9666 46.1 33.1C46.9667 32.2333 48.0667 31.8 49.4 31.8H52C53.2 31.8 54.2333 32.2333 55.1 33.1C55.9667 33.9666 56.4 35 56.4 36.2V48.8ZM9.4 24.2C11.1333 24.2 12.6333 23.5666 13.9 22.2999C15.1667 21.0333 15.8 19.5333 15.8 17.7999C15.8 16.0666 15.1667 14.5666 13.9 13.2999C12.6333 12.0333 11.1333 11.4 9.4 11.4C7.66667 11.4 6.16667 12.0333 4.9 13.2999C3.63333 14.5666 3 16.0666 3 17.7999C3 19.5333 3.63333 21.0333 4.9 22.2999C6.16667 23.5666 7.66667 24.2 9.4 24.2ZM9.4 14.7999C10.2 14.7999 10.9 15.0999 11.5 15.7C12.1 16.2999 12.4 17 12.4 17.7999C12.4 18.5999 12.1 19.2999 11.5 19.9C10.9 20.5 10.2 20.7999 9.4 20.7999C8.6 20.7999 7.9 20.5 7.3 19.9C6.7 19.2999 6.4 18.5999 6.4 17.7999C6.4 17 6.7 16.2999 7.3 15.7C7.9 15.0999 8.6 14.7999 9.4 14.7999Z" fill="#3267FF"/>
</g>
<defs>
<clipPath id="clip0_140_127">
<rect width="60.48" height="60" fill="white" transform="matrix(1 0 0 -1 0 60)"/>
</clipPath>
</defs>
</svg>
