<svg width="61" height="60" viewBox="0 0 61 60" fill="none" xmlns="http://www.w3.org/2000/svg">
<path d="M6.01331 53.8C6.54665 54.3333 7.14665 54.4667 7.81331 54.2L15.4133 51.6L18.6133 59C18.88 59.6667 19.4133 60 20.2133 60C20.88 60 21.4133 59.6667 21.8133 59L27.6133 45.6C28.5466 45.7333 29.48 45.8 30.4133 45.8C31.3466 45.8 32.28 45.7333 33.2133 45.6L39.0133 59C39.4133 59.6667 39.9466 60 40.6133 60C41.4133 60 41.9466 59.6667 42.2133 59L45.4133 51.6L53.0133 54.2C53.68 54.4667 54.28 54.3 54.8133 53.7C55.3466 53.1 55.48 52.4667 55.2133 51.8L48.6133 36.8C51.68 32.8 53.2133 28.2 53.2133 23C53.2133 18.8667 52.18 15.0333 50.1133 11.5C48.0466 7.96667 45.28 5.16666 41.8133 3.1C38.3466 1.03333 34.5466 0 30.4133 0C26.28 0 22.48 1.03333 19.0133 3.1C15.5466 5.16666 12.78 7.96667 10.7133 11.5C8.64665 15.0333 7.61331 18.8667 7.61331 23C7.61331 28.2 9.14665 32.8 12.2133 36.8L5.61331 51.8C5.34665 52.4667 5.47998 53.1333 6.01331 53.8ZM50.4133 49.6L45.0133 47.8C44.6133 47.6667 44.2133 47.7 43.8133 47.9C43.4133 48.1 43.08 48.4 42.8133 48.8L40.6133 53.8L36.8133 45C40.28 43.9333 43.3466 42.2 46.0133 39.8L50.4133 49.6ZM11.0133 23C11.0133 19.4 11.88 16.1333 13.6133 13.2C15.3466 10.2667 17.7133 7.93333 20.7133 6.2C23.7133 4.46667 26.9466 3.6 30.4133 3.6C33.88 3.6 37.1133 4.46667 40.1133 6.2C43.1133 7.93333 45.48 10.2667 47.2133 13.2C48.9466 16.1333 49.8133 19.3667 49.8133 22.9C49.8133 26.4333 48.9466 29.6667 47.2133 32.6C45.48 35.5333 43.1133 37.9 40.1133 39.7C37.1133 41.5 33.88 42.4 30.4133 42.4C26.9466 42.4 23.7133 41.5 20.7133 39.7C17.7133 37.9 15.3466 35.5333 13.6133 32.6C11.88 29.6667 11.0133 26.4667 11.0133 23ZM14.8133 39.8C17.48 42.2 20.5466 43.9333 24.0133 45L20.2133 53.8L18.0133 48.8C17.7466 48.4 17.4133 48.1 17.0133 47.9C16.6133 47.7 16.2133 47.6667 15.8133 47.8L10.4133 49.6L14.8133 39.8ZM23.4133 25.2L22.4133 31.2C22.28 31.8667 22.5133 32.4333 23.1133 32.9C23.7133 33.3667 24.3466 33.4 25.0133 33L30.4133 30.2L35.8133 33C36.48 33.4 37.1133 33.3667 37.7133 32.9C38.3133 32.4333 38.5466 31.8667 38.4133 31.2L37.4133 25.2L41.6133 21C42.1466 20.4667 42.3133 19.8667 42.1133 19.2C41.9133 18.5333 41.4133 18.1333 40.6133 18L34.6133 17L32.0133 11.6C31.6133 10.9333 31.08 10.6 30.4133 10.6C29.7466 10.6 29.2133 10.9333 28.8133 11.6L26.2133 17L20.2133 18C19.4133 18.1333 18.9133 18.5333 18.7133 19.2C18.5133 19.8667 18.68 20.4667 19.2133 21L23.4133 25.2ZM27.6133 20.4C28.1466 20.4 28.5466 20.0667 28.8133 19.4L30.4133 16.4L32.0133 19.4C32.28 20.0667 32.68 20.4 33.2133 20.4L36.6133 21L34.2133 23.4C33.8133 23.8 33.6133 24.2667 33.6133 24.8L34.2133 28.2L31.2133 26.6C30.68 26.3333 30.1466 26.3333 29.6133 26.6L26.6133 28.2L27.2133 24.8C27.2133 24.2667 27.0133 23.8 26.6133 23.4L24.2133 21L27.6133 20.4Z" fill="#3267FF"/>
</svg>
