<svg width="62" height="60" viewBox="0 0 62 60" fill="none" xmlns="http://www.w3.org/2000/svg">
<g clip-path="url(#clip0_140_119)">
<path d="M54.56 15.8H44.96V6.4C44.96 4.66666 44.3266 3.16666 43.06 1.9C41.7933 0.633331 40.2266 0 38.36 0H22.96C21.2266 0 19.7266 0.633331 18.46 1.9C17.1933 3.16666 16.56 4.66666 16.56 6.4V15.8H7.35996C5.62663 15.8 4.12663 16.4333 2.85996 17.7C1.59329 18.9667 0.959961 20.4667 0.959961 22.2V37.8C0.959961 39.5333 1.59329 41.0333 2.85996 42.3C4.12663 43.5667 5.62663 44.2 7.35996 44.2H16.56V53.6C16.56 55.3333 17.1933 56.8333 18.46 58.1C19.7266 59.3667 21.2266 60 22.96 60H38.36C40.2266 60 41.7933 59.3667 43.06 58.1C44.3266 56.8333 44.96 55.3333 44.96 53.6V44.2H54.56C56.2933 44.2 57.7933 43.5667 59.06 42.3C60.3266 41.0333 60.96 39.5333 60.96 37.8V22.2C60.96 20.4667 60.3266 18.9667 59.06 17.7C57.7933 16.4333 56.2933 15.8 54.56 15.8ZM54.56 40.6H43.16C42.6266 40.6 42.1933 40.7667 41.86 41.1C41.5266 41.4333 41.36 41.8667 41.36 42.4V53.6C41.36 54.4 41.06 55.0667 40.46 55.6C39.86 56.1333 39.16 56.4 38.36 56.4H22.96C22.16 56.4 21.4933 56.1333 20.96 55.6C20.4266 55.0667 20.16 54.4 20.16 53.6V42.4C20.16 41.8667 19.96 41.4333 19.56 41.1C19.16 40.7667 18.76 40.6 18.36 40.6H7.35996C6.55996 40.6 5.89329 40.3333 5.35996 39.8C4.82663 39.2667 4.55996 38.6 4.55996 37.8V22.2C4.55996 21.4 4.82663 20.7333 5.35996 20.2C5.89329 19.6667 6.55996 19.4 7.35996 19.4H18.36C18.76 19.4 19.16 19.2333 19.56 18.9C19.96 18.5667 20.16 18.1333 20.16 17.6V6.4C20.16 5.6 20.4266 4.93333 20.96 4.4C21.4933 3.86666 22.16 3.6 22.96 3.6H38.36C39.16 3.6 39.86 3.86666 40.46 4.4C41.06 4.93333 41.36 5.6 41.36 6.4V17.6C41.36 18.1333 41.5266 18.5667 41.86 18.9C42.1933 19.2333 42.6266 19.4 43.16 19.4H54.56C55.36 19.4 56.0266 19.6667 56.56 20.2C57.0933 20.7333 57.36 21.4 57.36 22.2V37.8C57.36 38.6 57.0933 39.2667 56.56 39.8C56.0266 40.3333 55.36 40.6 54.56 40.6ZM40.16 23.6C38.96 22.4 37.5266 21.8 35.86 21.8C34.1933 21.8 32.76 22.4 31.56 23.6L30.76 24.4L29.96 23.6C28.76 22.4 27.2933 21.8 25.56 21.8C23.8266 21.8 22.36 22.4 21.16 23.6C19.96 24.8 19.36 26.2333 19.36 27.9C19.36 29.5667 19.96 31 21.16 32.2L26.36 37.4C27.56 38.6 29.0266 39.2 30.76 39.2C32.4933 39.2 33.96 38.6 35.16 37.4L40.16 32.2C41.36 31 41.96 29.5667 41.96 27.9C41.96 26.2333 41.36 24.8 40.16 23.6ZM37.76 29.8L32.76 34.6L32.56 34.8C32.0266 35.3333 31.3933 35.6 30.66 35.6C29.9266 35.6 29.36 35.3333 28.96 34.8L23.76 29.8C23.2266 29.2667 22.96 28.6333 22.96 27.9C22.96 27.1667 23.2266 26.5333 23.76 26C24.2933 25.4667 24.8933 25.2 25.56 25.2C26.2266 25.2 26.8266 25.4667 27.36 26L29.56 28C29.8266 28.4 30.1933 28.6 30.66 28.6C31.1266 28.6 31.56 28.4 31.96 28L33.96 26C34.4933 25.4667 35.1266 25.2 35.86 25.2C36.5933 25.2 37.2266 25.4667 37.76 26C38.2933 26.5333 38.56 27.1667 38.56 27.9C38.56 28.6333 38.2933 29.2667 37.76 29.8Z" fill="#3267FF"/>
</g>
<defs>
<clipPath id="clip0_140_119">
<rect width="60.48" height="60" fill="white" transform="matrix(1 0 0 -1 0.959961 60)"/>
</clipPath>
</defs>
</svg>
