<svg width="61" height="60" viewBox="0 0 61 60" fill="none" xmlns="http://www.w3.org/2000/svg">
<g clip-path="url(#clip0_682_590)">
<path d="M58.8399 5.4C58.1733 4.46667 57.3066 3.73333 56.2399 3.2C55.1733 2.66666 54.0399 2.4 52.8399 2.4H51.8399V1.8C51.8399 1.26667 51.6733 0.833332 51.3399 0.5C51.0066 0.166664 50.5733 0 50.0399 0C49.5066 0 49.0733 0.166664 48.7399 0.5C48.4066 0.833332 48.2399 1.26667 48.2399 1.8V6.4C48.2399 6.93333 48.4066 7.36666 48.7399 7.7C49.0733 8.03333 49.5066 8.2 50.0399 8.2C50.5733 8.2 51.0066 8.03333 51.3399 7.7C51.6733 7.36666 51.8399 6.93333 51.8399 6.4V5.8H52.8399C54.1733 5.8 55.2399 6.36666 56.0399 7.5C56.8399 8.63333 57.1066 9.8 56.8399 11L52.0399 27.4C51.3733 29.6667 50.1066 31.5333 48.2399 33C46.3733 34.4667 44.2399 35.2 41.8399 35.2C39.4399 35.2 37.3066 34.4667 35.4399 33C33.5733 31.5333 32.3066 29.6667 31.6399 27.4L26.8399 11C26.5733 9.8 26.8399 8.63333 27.6399 7.5C28.4399 6.36666 29.5066 5.8 30.8399 5.8H31.8399V6.4C31.8399 6.93333 32.0066 7.36666 32.3399 7.7C32.6733 8.03333 33.1066 8.2 33.6399 8.2C34.1733 8.2 34.6066 8.03333 34.9399 7.7C35.2733 7.36666 35.4399 6.93333 35.4399 6.4V1.8C35.4399 1.26667 35.2733 0.833332 34.9399 0.5C34.6066 0.166664 34.1733 0 33.6399 0C33.1066 0 32.6733 0.166664 32.3399 0.5C32.0066 0.833332 31.8399 1.26667 31.8399 1.8V2.4H30.8399C29.6399 2.4 28.5066 2.66666 27.4399 3.2C26.3733 3.73333 25.4733 4.46667 24.7399 5.4C24.0066 6.33333 23.5399 7.4 23.3399 8.6C23.1399 9.8 23.1733 10.9333 23.4399 12L28.2399 28.4C29.0399 31.4667 30.7066 33.9333 33.2399 35.8C33.7733 36.2 34.3733 36.5333 35.0399 36.8L40.0399 49V50.2C40.0399 51.9333 39.4399 53.4 38.2399 54.6C37.0399 55.8 35.5733 56.4 33.8399 56.4C32.1066 56.4 30.6399 55.8 29.4399 54.6C28.2399 53.4 27.6399 51.9333 27.6399 50.2V38.2C27.6399 35.4 26.6399 33.0333 24.6399 31.1C22.6399 29.1667 20.2733 28.2 17.5399 28.2C14.8066 28.2 12.4399 29.1667 10.4399 31.1C8.43994 33.0333 7.43994 35.4 7.43994 38.2V42.4C5.43994 42.8 3.77327 43.8 2.43994 45.4C1.10661 47 0.439941 48.8667 0.439941 51C0.439941 53.4 1.30661 55.4667 3.03994 57.2C4.77327 58.9333 6.83994 59.8 9.23994 59.8C11.6399 59.8 13.7066 58.9333 15.4399 57.2C17.1733 55.4667 18.0399 53.4 18.0399 51C18.0399 48.8667 17.3733 47 16.0399 45.4C14.7066 43.8 13.0399 42.8 11.0399 42.4V38.2C11.0399 36.3333 11.6733 34.7667 12.9399 33.5C14.2066 32.2333 15.7399 31.6 17.5399 31.6C19.3399 31.6 20.8733 32.2333 22.1399 33.5C23.4066 34.7667 24.0399 36.3333 24.0399 38.2V50.2C24.0399 52.8667 25.0066 55.1667 26.9399 57.1C28.8733 59.0333 31.1733 60 33.8399 60C36.5066 60 38.8066 59.0333 40.7399 57.1C42.6733 55.1667 43.6399 52.8667 43.6399 50.2V49L48.6399 36.8C49.3066 36.5333 49.9066 36.2 50.4399 35.8C52.9733 33.9333 54.6399 31.4667 55.4399 28.4L60.2399 12C60.5066 10.9333 60.5399 9.8 60.3399 8.6C60.1399 7.4 59.6399 6.33333 58.8399 5.4ZM14.4399 51C14.4399 52.4667 13.9399 53.7 12.9399 54.7C11.9399 55.7 10.7066 56.2 9.23994 56.2C7.77327 56.2 6.53994 55.7 5.53994 54.7C4.53994 53.7 4.03994 52.4667 4.03994 51C4.03994 49.5333 4.53994 48.3 5.53994 47.3C6.53994 46.3 7.77327 45.8 9.23994 45.8C10.7066 45.8 11.9399 46.3 12.9399 47.3C13.9399 48.3 14.4399 49.5333 14.4399 51ZM41.8399 44.2L39.4399 38.4C40.2399 38.5333 41.0399 38.6 41.8399 38.6C42.6399 38.6 43.4399 38.5333 44.2399 38.4L41.8399 44.2ZM7.43994 51C7.43994 51.5333 7.60661 51.9667 7.93994 52.3C8.27327 52.6333 8.70661 52.8 9.23994 52.8C9.77327 52.8 10.2066 52.6333 10.5399 52.3C10.8733 51.9667 11.0399 51.5333 11.0399 51C11.0399 50.4667 10.8733 50.0333 10.5399 49.7C10.2066 49.3667 9.77327 49.2 9.23994 49.2C8.70661 49.2 8.27327 49.3667 7.93994 49.7C7.60661 50.0333 7.43994 50.4667 7.43994 51Z" fill="#3267FF"/>
</g>
<defs>
<clipPath id="clip0_682_590">
<rect width="60.48" height="60" fill="white" transform="matrix(1 0 0 -1 0.439941 60)"/>
</clipPath>
</defs>
</svg>
